<?xml version="1.0" standalone="no"?>
<!DOCTYPE svg PUBLIC "-//W3C//DTD SVG 20010904//EN"
 "http://www.w3.org/TR/2001/REC-SVG-20010904/DTD/svg10.dtd">
<svg version="1.0" xmlns="http://www.w3.org/2000/svg"
 width="512.000000pt" height="512.000000pt" viewBox="0 0 512.000000 512.000000"
 preserveAspectRatio="xMidYMid meet">
<metadata>
Created by potrace 1.14, written by Peter Selinger 2001-2017
</metadata>
<g transform="translate(0.000000,512.000000) scale(0.100000,-0.100000)"
fill="#000000" stroke="none">
<path d="M1275 4253 c-11 -2 -56 -11 -100 -19 -345 -66 -618 -305 -701 -614
-27 -99 -25 -320 4 -422 70 -248 225 -411 487 -512 50 -19 220 -66 380 -106
320 -79 416 -112 496 -169 100 -72 158 -188 163 -331 14 -334 -236 -527 -664
-515 -69 2 -138 6 -155 10 -161 34 -244 61 -372 121 -109 52 -282 168 -334
226 -9 10 -24 18 -33 18 -14 0 -16 -25 -16 -243 l0 -244 83 -35 c176 -77 364
-138 487 -157 36 -6 81 -13 100 -17 63 -10 413 -13 486 -3 330 43 609 230 732
489 66 141 91 255 87 410 -4 162 -25 249 -87 360 -123 222 -346 341 -838 445
-128 27 -311 83 -375 114 -160 79 -237 195 -249 375 -14 234 143 417 409 475
88 20 285 22 380 6 164 -29 396 -132 538 -239 48 -36 93 -66 100 -66 11 0 13
47 13 231 l-1 231 -29 15 c-100 52 -350 126 -503 149 -26 3 -57 9 -68 11 -27
6 -395 12 -420 6z"/>
<path d="M2805 2745 l0 -1456 540 4 c297 2 555 7 573 10 18 3 52 9 75 12 69
10 188 44 245 70 29 14 55 25 59 25 3 0 49 29 102 64 261 174 382 410 376 731
-6 313 -151 541 -418 659 -30 13 -69 27 -86 31 -17 3 -33 10 -36 15 -3 4 28
27 67 51 86 51 200 162 246 241 63 106 85 189 88 323 4 185 -32 305 -124 421
-83 105 -280 206 -447 230 -27 3 -59 9 -70 12 -11 2 -283 7 -605 9 l-585 5 0
-1457z m1100 1111 c22 -3 74 -18 115 -33 96 -34 168 -102 195 -182 20 -60 27
-196 14 -266 -26 -137 -61 -195 -157 -258 -131 -85 -186 -94 -589 -96 l-293
-2 0 427 0 426 338 -5 c185 -3 355 -8 377 -11z m35 -1182 c98 -14 169 -40 244
-88 135 -87 188 -202 188 -411 0 -97 -2 -116 -17 -180 -23 -93 -120 -212 -219
-270 -61 -36 -168 -73 -234 -81 -31 -3 -66 -9 -77 -11 -11 -3 -158 -7 -327
-10 l-308 -5 0 536 0 537 333 -2 c203 -1 365 -7 417 -15z"/>
</g>
</svg>
